<?xml version="1.0" encoding="UTF-8"?>
<svg xmlns="http://www.w3.org/2000/svg" width="216.0mm" height="279.0mm" viewBox="0 0 216.0 279.0">
<rect width="100%" height="100%" fill="white"/>
<rect x="18.000" y="24.000" width="20.000" height="20.000" fill="black"/>
<rect x="58.000" y="24.000" width="20.000" height="20.000" fill="black"/>
<rect x="98.000" y="24.000" width="20.000" height="20.000" fill="black"/>
<rect x="138.000" y="24.000" width="20.000" height="20.000" fill="black"/>
<rect x="178.000" y="24.000" width="20.000" height="20.000" fill="black"/>
<rect x="38.000" y="44.000" width="20.000" height="20.000" fill="black"/>
<rect x="78.000" y="44.000" width="20.000" height="20.000" fill="black"/>
<rect x="118.000" y="44.000" width="20.000" height="20.000" fill="black"/>
<rect x="158.000" y="44.000" width="20.000" height="20.000" fill="black"/>
<rect x="18.000" y="64.000" width="20.000" height="20.000" fill="black"/>
<rect x="58.000" y="64.000" width="20.000" height="20.000" fill="black"/>
<rect x="98.000" y="64.000" width="20.000" height="20.000" fill="black"/>
<rect x="138.000" y="64.000" width="20.000" height="20.000" fill="black"/>
<rect x="178.000" y="64.000" width="20.000" height="20.000" fill="black"/>
<rect x="38.000" y="84.000" width="20.000" height="20.000" fill="black"/>
<rect x="78.000" y="84.000" width="20.000" height="20.000" fill="black"/>
<rect x="118.000" y="84.000" width="20.000" height="20.000" fill="black"/>
<rect x="158.000" y="84.000" width="20.000" height="20.000" fill="black"/>
<rect x="18.000" y="104.000" width="20.000" height="20.000" fill="black"/>
<rect x="58.000" y="104.000" width="20.000" height="20.000" fill="black"/>
<rect x="98.000" y="104.000" width="20.000" height="20.000" fill="black"/>
<rect x="138.000" y="104.000" width="20.000" height="20.000" fill="black"/>
<rect x="178.000" y="104.000" width="20.000" height="20.000" fill="black"/>
<rect x="38.000" y="124.000" width="20.000" height="20.000" fill="black"/>
<rect x="78.000" y="124.000" width="20.000" height="20.000" fill="black"/>
<rect x="118.000" y="124.000" width="20.000" height="20.000" fill="black"/>
<rect x="158.000" y="124.000" width="20.000" height="20.000" fill="black"/>
<rect x="18.000" y="144.000" width="20.000" height="20.000" fill="black"/>
<rect x="58.000" y="144.000" width="20.000" height="20.000" fill="black"/>
<rect x="98.000" y="144.000" width="20.000" height="20.000" fill="black"/>
<rect x="138.000" y="144.000" width="20.000" height="20.000" fill="black"/>
<rect x="178.000" y="144.000" width="20.000" height="20.000" fill="black"/>
<path d="M 26.000 44.000 L 35.000 41.000 L 35.000 47.000 Z" fill="#e00000"/>
<text x="25.000" y="39.000" font-family="sans-serif" font-size="4" fill="#e00000">ORIGIN</text>
<text x="18.000" y="176.000" font-family="sans-serif" font-size="4" fill="black">8 x 6 inner corners; square = 20.00 mm. Print at 100% / Actual Size.</text>
<line x1="18.000" y1="186.000" x2="118.000" y2="186.000" stroke="black" stroke-width="0.5"/>
<text x="18.000" y="192.000" font-family="sans-serif" font-size="4">100 mm verification line</text>
</svg>
